<svg width="42" height="42" viewBox="0 0 42 42" fill="none" xmlns="http://www.w3.org/2000/svg">
<path d="M12.8677 17.7828V22.6973H16.144L20.2394 26.7927V13.6873L16.144 17.7828H12.8677ZM23.9253 20.24C23.9253 18.7902 23.0899 17.5452 21.8776 16.9391V23.5327C23.0899 22.9348 23.9253 21.6898 23.9253 20.24ZM21.8776 13.0566V14.744C24.2448 15.4484 25.973 17.6435 25.973 20.24C25.973 22.8365 24.2448 25.0317 21.8776 25.7361V27.4234C25.1621 26.678 27.6112 23.7457 27.6112 20.24C27.6112 16.7343 25.1621 13.802 21.8776 13.0566Z" fill="white"/>
<circle cx="20.822" cy="20.822" r="20.3882" stroke="url(#paint0_linear_12_4600)" stroke-width="0.867584"/>
<defs>
<linearGradient id="paint0_linear_12_4600" x1="20.822" y1="0" x2="20.822" y2="41.644" gradientUnits="userSpaceOnUse">
<stop stop-color="#0CF9EF"/>
<stop offset="1" stop-color="#D78BFE"/>
</linearGradient>
</defs>
</svg>
